<?xml version="1.0" encoding="UTF-8" standalone="no"?>
<!DOCTYPE svg PUBLIC "-//W3C//DTD SVG 1.1//EN" "http://www.w3.org/Graphics/SVG/1.1/DTD/svg11.dtd">
<svg width="100%" height="100%" viewBox="0 0 880 337" version="1.1" xmlns="http://www.w3.org/2000/svg" xmlns:xlink="http://www.w3.org/1999/xlink" xml:space="preserve" xmlns:serif="http://www.serif.com/" style="fill-rule:evenodd;clip-rule:evenodd;stroke-linejoin:round;stroke-miterlimit:2;">
    <g transform="matrix(1,0,0,1,-2219.456441,-196)">
        <g id="logo-brown" transform="matrix(1.056588,0,0,1,-151.379538,-0.809435)">
            <rect x="2243.86" y="196.809" width="832.099" height="336.599" style="fill:none;"/>
            <g transform="matrix(0.972199,0,0,1.020872,2214.85649,66.866633)">
                <g transform="matrix(1.384544,0,0,1.393145,-0.001315,-1759.083426)">
                    <g transform="matrix(0.593436,0,0,0.593436,-64.123896,1315.950734)">
                        <circle cx="378.818" cy="219.435" r="40.292" style="fill:rgb(173,84,75);"/>
                    </g>
                    <g transform="matrix(0.543145,0,0,0.593436,-3.293888,1336.109898)">
                        <path d="M246.378,159.173C247.317,159.157 248.197,159.591 248.699,160.317C249.202,161.043 249.254,161.957 248.837,162.727C245.912,168.384 243.574,175.494 243.534,183.682C243.514,187.192 241.426,190.418 238.073,192.121C229.06,196.736 211.737,205.535 203.244,209.849C202.214,210.372 200.958,210.357 199.942,209.81C198.927,209.263 198.303,208.265 198.303,207.187C198.303,197.844 198.303,178.125 198.303,167.368C198.303,163.27 201.889,159.927 206.366,159.851C217.576,159.661 237.491,159.323 246.378,159.173Z" style="fill:rgb(173,84,75);"/>
                    </g>
                    <g transform="matrix(0.593436,0,0,0.593436,-3.590407,1336.109898)">
                        <path d="M223.365,206.775C224.083,206.185 225.043,205.979 225.94,206.223C226.838,206.467 227.561,207.13 227.882,208.003C232.896,221.699 241.446,228.392 252.566,233.428C253.648,233.921 254.463,234.858 254.801,235.998C255.139,237.138 254.966,238.369 254.327,239.371C247.706,249.775 230.093,277.419 220.916,291.821C217.34,297.434 211.146,300.832 204.491,300.832C199.63,300.832 193.99,300.832 189.574,300.832C187.565,300.832 185.638,300.034 184.217,298.613C182.796,297.192 181.998,295.265 181.998,293.255C181.998,282.008 181.998,260.963 181.998,249.234C181.998,243.887 184.391,238.822 188.52,235.426C198.216,227.453 216.07,212.773 223.365,206.775Z" style="fill:rgb(173,84,75);"/>
                    </g>
                    <g transform="matrix(0.593436,0,0,0.593436,-3.590407,1336.109898)">
                        <path d="M285.44,238.4C288.653,237.865 291.868,239.346 293.551,242.135C295.547,245.394 298.161,249.728 300.229,253.156C302.309,256.605 302.255,260.936 300.089,264.332C295.479,271.561 287.377,284.265 282.052,292.615C278.788,297.733 273.138,300.832 267.067,300.832C261.177,300.832 253.956,300.832 249.433,300.832C248.435,300.832 247.5,300.346 246.927,299.529C246.354,298.712 246.215,297.667 246.555,296.729C250.487,285.872 261.173,256.368 265.698,243.876C266.832,240.745 269.913,238.754 273.233,239.005C274.979,239.149 276.34,239.092 276.812,239.092C279.749,239.092 282.631,238.856 285.44,238.4Z" style="fill:rgb(173,84,75);"/>
                    </g>
                    <g transform="matrix(0.593436,0,0,0.593436,-358.753658,1336.109898)">
                        <path d="M908.396,227.281C908.623,227.1 908.914,227.02 909.201,227.06C909.816,228.111 912.364,232.14 922.766,248.589C927.527,256.119 926.492,263.646 923.358,268.499L893.22,315.161C889.676,320.648 882.808,322.158 876.276,322.158C876.276,322.158 885.379,322.158 772.451,322.158C764.531,322.158 758.337,315.073 758.337,307.153L758.337,156.623C758.337,142.123 765.706,137.073 774.331,137.073L848.735,137.073C849.19,137.073 849.587,137.382 849.7,137.822C849.813,138.263 849.613,138.725 849.214,138.944C845.769,140.877 842.561,143.185 839.644,145.81C837.262,147.996 834.146,149.208 830.912,149.208C820.174,149.273 795.431,149.273 781.177,149.273C778.355,149.273 775.649,150.394 773.653,152.389C771.658,154.384 770.537,157.091 770.537,159.913C770.537,189.287 770.537,271.229 770.537,299.899C770.537,305.454 775.041,309.958 780.596,309.958C801.471,309.958 849.351,309.958 871.031,309.958C877.905,309.958 884.31,306.47 888.039,300.696C894.421,290.816 904.397,275.37 910.239,266.324C913.106,261.885 913.134,256.184 910.309,251.718C906.954,246.412 902.62,239.557 900.319,235.919C899.913,235.276 899.789,234.493 899.978,233.755C900.167,233.018 900.652,232.391 901.318,232.022C903.809,230.631 906.174,229.043 908.396,227.281Z" style="fill:rgb(173,84,75);"/>
                    </g>
                </g>
                <g transform="matrix(0.821638,0,0,0.826743,-144.867189,-828.013624)">
                    <path d="M546.133,1404.219L546.133,1305.593L595.227,1305.593C601.06,1305.593 606.142,1306.627 610.473,1308.694C614.806,1310.761 618.197,1313.682 620.646,1317.457C623.095,1321.231 624.32,1325.659 624.32,1330.74C624.32,1335.968 622.818,1340.35 619.815,1343.886C616.811,1347.423 613.074,1349.865 608.603,1351.213L608.603,1351.7C612.153,1352.403 615.492,1353.8 618.62,1355.891C621.749,1357.983 624.292,1360.728 626.251,1364.127C628.21,1367.525 629.19,1371.581 629.19,1376.296C629.19,1381.897 627.842,1386.786 625.147,1390.964C622.452,1395.14 618.724,1398.394 613.964,1400.724C609.206,1403.054 603.69,1404.219 597.418,1404.219L546.133,1404.219ZM563.05,1389.575L594.171,1389.575C599.886,1389.575 604.331,1388.287 607.507,1385.711C610.684,1383.135 612.273,1379.433 612.273,1374.606C612.273,1369.736 610.695,1366.064 607.54,1363.591C604.385,1361.117 599.97,1359.881 594.292,1359.881L563.05,1359.881L563.05,1389.575ZM563.05,1346.278L592.978,1346.278C597.551,1346.278 601.099,1345.151 603.62,1342.897C606.142,1340.642 607.403,1337.429 607.403,1333.257C607.403,1329.003 606.142,1325.77 603.62,1323.556C601.099,1321.343 597.551,1320.236 592.978,1320.236L563.05,1320.236L563.05,1346.278Z" style="fill:rgb(173,84,75);fill-rule:nonzero;"/>
                    <path d="M688.13,1405.68C678.105,1405.68 669.353,1403.59 661.875,1399.409C654.398,1395.229 648.592,1389.333 644.458,1381.722C640.324,1374.11 638.257,1365.172 638.257,1354.906C638.257,1344.559 640.324,1335.59 644.458,1328.001C648.592,1320.411 654.398,1314.535 661.875,1310.374C669.353,1306.212 678.104,1304.132 688.128,1304.132C698.235,1304.132 707.027,1306.203 714.504,1310.345C721.982,1314.488 727.768,1320.354 731.861,1327.943C735.955,1335.533 738.002,1344.511 738.002,1354.877C738.002,1365.162 735.934,1374.12 731.8,1381.75C727.666,1389.38 721.869,1395.276 714.409,1399.438C706.95,1403.599 698.19,1405.68 688.13,1405.68ZM688.158,1390.907C698.453,1390.907 706.493,1387.673 712.278,1381.206C718.064,1374.739 720.957,1365.969 720.957,1354.898C720.957,1343.756 718.075,1334.971 712.31,1328.545C706.547,1322.118 698.489,1318.905 688.135,1318.905C677.855,1318.905 669.813,1322.118 664.008,1328.545C658.204,1334.971 655.302,1343.749 655.302,1354.877C655.302,1366.007 658.204,1374.794 664.008,1381.24C669.813,1387.685 677.863,1390.907 688.158,1390.907Z" style="fill:rgb(173,84,75);fill-rule:nonzero;"/>
                    <path d="M755.438,1404.219L755.438,1305.593L792.518,1305.593C803.233,1305.593 812.476,1307.571 820.247,1311.527C828.018,1315.483 834.003,1321.154 838.203,1328.541C842.402,1335.928 844.502,1344.716 844.502,1354.906C844.502,1365.014 842.382,1373.762 838.142,1381.149C833.902,1388.536 827.896,1394.227 820.125,1398.224C812.354,1402.22 803.152,1404.219 792.518,1404.219L755.438,1404.219ZM772.355,1389.803L792.518,1389.803C803.693,1389.803 812.299,1386.686 818.335,1380.453C824.372,1374.217 827.391,1365.702 827.391,1354.906C827.391,1344.028 824.383,1335.493 818.367,1329.3C812.353,1323.105 803.736,1320.008 792.518,1320.008L772.355,1320.008L772.355,1389.803Z" style="fill:rgb(173,84,75);fill-rule:nonzero;"/>
                    <path d="M861.978,1404.219L861.978,1305.593L878.895,1305.593L878.895,1345.758L931.968,1345.758L931.968,1305.593L948.883,1305.593L948.883,1404.219L931.968,1404.219L931.968,1360.4L878.895,1360.4L878.895,1404.219L861.978,1404.219Z" style="fill:rgb(173,84,75);fill-rule:nonzero;"/>
                    <path d="M998.439,1404.219L998.439,1367.358L961.603,1305.593L980.866,1305.593L1007.02,1350.264L1007.507,1350.264L1033.847,1305.593L1052.193,1305.593L1015.356,1367.114L1015.356,1404.219L998.439,1404.219Z" style="fill:rgb(173,84,75);fill-rule:nonzero;"/>
                    <path d="M1039.773,1404.219L1081.813,1305.593L1099.816,1305.593L1141.565,1404.219L1124.364,1404.219L1112.846,1377.138L1068.078,1377.138L1056.502,1404.219L1039.773,1404.219ZM1073.444,1362.82L1107.991,1362.82L1091.084,1322.525L1090.475,1322.525L1073.444,1362.82Z" style="fill:rgb(173,84,75);fill-rule:nonzero;"/>
                </g>
            </g>
        </g>
    </g>
</svg>
