<svg width="127" height="140" viewBox="0 0 127 140" fill="none" xmlns="http://www.w3.org/2000/svg">
<path d="M88.3295 66.9735C105.135 66.9735 118.758 53.3503 118.758 36.5452C118.758 19.7401 105.135 6.11682 88.3295 6.11682C71.5244 6.11682 57.9011 19.7401 57.9011 36.5452C57.9011 53.3503 71.5244 66.9735 88.3295 66.9735Z" fill="#AD544B"/>
<path fill-rule="evenodd" clip-rule="evenodd" d="M49.9543 16.6897C50.6034 16.6776 51.2116 17.0054 51.5586 17.5537C51.9063 18.1019 51.9422 18.7922 51.654 19.3737C49.6322 23.6458 48.0162 29.0153 47.9886 35.1988C47.9747 37.8496 46.5315 40.2858 44.2139 41.5719C37.9842 45.0571 26.0106 51.7021 20.1402 54.96C19.4283 55.355 18.5602 55.3437 17.8579 54.9306C17.1563 54.5175 16.725 53.7638 16.725 52.9497C16.725 45.8939 16.725 31.0022 16.725 22.8785C16.725 19.7837 19.2037 17.2591 22.2982 17.2017C30.0465 17.0582 43.8117 16.803 49.9543 16.6897Z" fill="#AD544B"/>
<path fill-rule="evenodd" clip-rule="evenodd" d="M47.9658 52.6388C48.5081 52.1932 49.2331 52.0376 49.9105 52.2219C50.5886 52.4062 51.1346 52.9069 51.3771 53.5661C55.1636 63.9093 61.6205 68.9638 70.0183 72.767C70.8354 73.1393 71.4509 73.8469 71.7062 74.7079C71.9614 75.5688 71.8308 76.4984 71.3482 77.2551C66.3481 85.1122 53.0468 105.989 46.1164 116.865C43.4158 121.104 38.7381 123.67 33.7123 123.67C30.0413 123.67 25.782 123.67 22.447 123.67C20.9298 123.67 19.4746 123.068 18.4014 121.994C17.3283 120.921 16.7256 119.466 16.7256 117.948C16.7256 109.454 16.7256 93.5613 16.7256 84.7036C16.7256 80.6656 18.5328 76.8405 21.651 74.2759C28.9734 68.2547 42.4567 57.1684 47.9658 52.6388Z" fill="#AD544B"/>
<path fill-rule="evenodd" clip-rule="evenodd" d="M94.8447 76.5216C97.2711 76.1176 99.6991 77.236 100.97 79.3422C102.477 81.8034 104.452 85.0765 106.013 87.6653C107.584 90.2699 107.543 93.5407 105.908 96.1053C102.426 101.565 96.3075 111.159 92.2861 117.465C89.8211 121.33 85.5543 123.67 80.9695 123.67C76.5214 123.67 71.0681 123.67 67.6523 123.67C66.8987 123.67 66.1926 123.303 65.7598 122.686C65.3271 122.069 65.2221 121.28 65.4789 120.571C68.4483 112.372 76.5183 90.091 79.9356 80.6571C80.792 78.2925 83.1188 76.7889 85.626 76.9785C86.9446 77.0872 87.9724 77.0442 88.3289 77.0442C90.5469 77.0442 92.7233 76.866 94.8447 76.5216Z" fill="#AD544B"/>
<path fill-rule="evenodd" clip-rule="evenodd" d="M113.324 68.1247C113.495 67.988 113.715 67.9276 113.932 67.9578C114.396 68.7515 116.321 71.7942 124.176 84.2164C127.772 89.9031 126.99 95.5874 124.623 99.2524L101.863 134.491C99.1867 138.635 94 139.775 89.0671 139.775C89.0671 139.775 95.9416 139.775 10.6588 139.775C4.67769 139.775 0 134.425 0 128.444V14.7641C0 3.81374 5.56505 0 12.0786 0H68.2682C68.6118 0 68.9117 0.233362 68.997 0.565648C69.0823 0.898689 68.9313 1.24759 68.63 1.41297C66.0283 2.87277 63.6056 4.61576 61.4027 6.59815C59.6039 8.24901 57.2507 9.1643 54.8084 9.1643C46.6991 9.21339 28.0133 9.21339 17.2487 9.21339C15.1175 9.21339 13.074 10.06 11.5666 11.5666C10.06 13.0732 9.2134 15.1175 9.2134 17.2487C9.2134 39.4318 9.2134 101.314 9.2134 122.966C9.2134 127.161 12.6148 130.562 16.8099 130.562C32.5747 130.562 68.7334 130.562 85.1061 130.562C90.2973 130.562 95.1343 127.928 97.9505 123.567C102.77 116.106 110.304 104.441 114.716 97.6098C116.881 94.2575 116.902 89.9522 114.769 86.5795C112.235 82.5724 108.962 77.3955 107.224 74.6481C106.918 74.1625 106.824 73.5712 106.967 73.0139C107.11 72.4573 107.476 71.9838 107.979 71.7051C109.86 70.6546 111.646 69.4554 113.324 68.1247Z" fill="#AD544B"/>
</svg>
