<svg width="343" height="379" viewBox="0 0 343 379" fill="none" xmlns="http://www.w3.org/2000/svg">
<path d="M239.108 181.298C284.599 181.298 321.478 144.42 321.478 98.9283C321.478 53.4367 284.599 16.5586 239.108 16.5586C193.616 16.5586 156.738 53.4367 156.738 98.9283C156.738 144.42 193.616 181.298 239.108 181.298Z" fill="#FCFCFC"/>
<path fill-rule="evenodd" clip-rule="evenodd" d="M135.226 45.1781C136.983 45.1454 138.63 46.0326 139.569 47.5168C140.51 49.001 140.607 50.8695 139.827 52.4436C134.354 64.0083 129.98 78.5434 129.905 95.2823C129.867 102.458 125.961 109.053 119.687 112.534C102.823 121.969 70.4104 139.957 54.5194 148.776C52.5922 149.845 50.2421 149.815 48.3411 148.696C46.442 147.578 45.2744 145.538 45.2744 143.334C45.2744 124.234 45.2744 83.922 45.2744 61.9313C45.2744 53.5537 51.9841 46.7195 60.3609 46.5642C81.3356 46.1757 118.598 45.4848 135.226 45.1781Z" fill="#FAFAFA"/>
<path fill-rule="evenodd" clip-rule="evenodd" d="M129.843 142.493C131.311 141.287 133.274 140.866 135.108 141.365C136.943 141.864 138.421 143.219 139.078 145.004C149.328 173.003 166.807 186.685 189.54 196.98C191.752 197.988 193.418 199.904 194.109 202.234C194.8 204.565 194.446 207.081 193.14 209.13C179.604 230.399 143.598 286.912 124.837 316.354C117.526 327.829 104.864 334.776 91.259 334.776C81.3215 334.776 69.7916 334.776 60.7639 334.776C56.6569 334.776 52.7174 333.144 49.8125 330.239C46.9075 327.334 45.2761 323.395 45.2761 319.286C45.2761 296.293 45.2761 253.271 45.2761 229.293C45.2761 218.362 50.1682 208.008 58.6092 201.065C78.4309 184.766 114.93 154.755 129.843 142.493Z" fill="#FAFAFA"/>
<path fill-rule="evenodd" clip-rule="evenodd" d="M256.745 207.144C263.313 206.05 269.885 209.078 273.326 214.78C277.406 221.442 282.75 230.302 286.978 237.31C291.23 244.361 291.12 253.215 286.692 260.157C277.267 274.936 260.704 300.907 249.818 317.977C243.146 328.44 231.595 334.775 219.184 334.775C207.143 334.775 192.381 334.775 183.135 334.775C181.095 334.775 179.183 333.781 178.012 332.111C176.84 330.441 176.556 328.305 177.251 326.387C185.289 304.192 207.135 243.876 216.386 218.339C218.704 211.938 225.002 207.868 231.79 208.381C235.359 208.675 238.141 208.559 239.106 208.559C245.11 208.559 251.002 208.076 256.745 207.144Z" fill="#FAFAFA"/>
<path fill-rule="evenodd" clip-rule="evenodd" d="M306.768 184.414C307.232 184.044 307.827 183.88 308.414 183.962C309.671 186.111 314.88 194.347 336.145 227.974C345.878 243.368 343.762 258.756 337.355 268.677L275.744 364.069C268.499 375.286 254.458 378.373 241.105 378.373C241.105 378.373 259.714 378.373 28.8535 378.373C12.6625 378.373 0 363.889 0 347.698V39.9664C0 10.3238 15.0646 0 32.6969 0H184.802C185.732 0 186.544 0.631711 186.775 1.53121C187.006 2.43276 186.597 3.37722 185.782 3.82492C178.739 7.77659 172.181 12.4949 166.217 17.8612C161.348 22.3301 154.978 24.8078 148.366 24.8078C126.415 24.9407 75.832 24.9407 46.6923 24.9407C40.9232 24.9407 35.3913 27.2324 31.3109 31.3108C27.2324 35.3892 24.9407 40.9232 24.9407 46.6922C24.9407 106.742 24.9407 274.258 24.9407 332.868C24.9407 344.224 34.1484 353.432 45.5046 353.432C88.1797 353.432 186.062 353.432 230.382 353.432C244.435 353.432 257.529 346.301 265.152 334.498C278.199 314.3 298.593 282.723 310.536 264.23C316.397 255.155 316.454 243.501 310.679 234.371C303.821 223.524 294.96 209.51 290.256 202.073C289.426 200.758 289.173 199.158 289.559 197.649C289.946 196.142 290.937 194.86 292.299 194.106C297.391 191.262 302.226 188.016 306.768 184.414Z" fill="#AD544B"/>
<path fill-rule="evenodd" clip-rule="evenodd" d="M306.768 184.414C307.232 184.044 307.827 183.88 308.414 183.962C309.671 186.111 314.88 194.347 336.145 227.974C345.878 243.368 343.762 258.756 337.355 268.677L275.744 364.069C268.499 375.286 254.458 378.373 241.105 378.373C241.105 378.373 259.714 378.373 28.8535 378.373C12.6625 378.373 0 363.889 0 347.698V39.9664C0 10.3238 15.0646 0 32.6969 0H184.802C185.732 0 186.544 0.631711 186.775 1.53121C187.006 2.43276 186.597 3.37722 185.782 3.82492C178.739 7.77659 172.181 12.4949 166.217 17.8612C161.348 22.3301 154.978 24.8078 148.366 24.8078C126.415 24.9407 75.832 24.9407 46.6923 24.9407C40.9232 24.9407 35.3913 27.2324 31.3109 31.3108C27.2324 35.3892 24.9407 40.9232 24.9407 46.6922C24.9407 106.742 24.9407 274.258 24.9407 332.868C24.9407 344.224 34.1484 353.432 45.5046 353.432C88.1797 353.432 186.062 353.432 230.382 353.432C244.435 353.432 257.529 346.301 265.152 334.498C278.199 314.3 298.593 282.723 310.536 264.23C316.397 255.155 316.454 243.501 310.679 234.371C303.821 223.524 294.96 209.51 290.256 202.073C289.426 200.758 289.173 199.158 289.559 197.649C289.946 196.142 290.937 194.86 292.299 194.106C297.391 191.262 302.226 188.016 306.768 184.414Z" fill="#AD544B"/>
</svg>
