<svg width="419" height="147" viewBox="0 0 419 147" fill="none" xmlns="http://www.w3.org/2000/svg">
<path d="M89.0938 28.6199L89.0969 43.4111H95.0657V28.6199H89.0938Z" fill="#5C1237"/>
<path d="M92.5196 74.2607V63.7946C92.5196 61.8962 91.0133 60.2441 89.0967 60.0758L89.0988 74.2607H92.5196Z" fill="#5C1237"/>
<path d="M80.1854 29.4893V43.409L70.612 44.6669V31.4533L77.249 29.4893L80.1854 28.62V29.4893ZM82.439 43.4112V28.62H89.0937L89.0917 0.0919846C88.9833 0.033318 88.86 -4.0089e-05 88.7308 -4.0089e-05C88.327 -4.0089e-05 88.0213 0.325322 88.0213 0.729322V3.61864H86.5157V6.26132H85.3912L83.0104 10.5853H81.4824V13.4973H81.4745H81.1953L64.9937 26.28L64.9876 29.444H67.4433V29.4893V31.4533V44.6669V47.2972H63.886V50.7596L70.0474 53.5409L59.7734 146.201C62.248 146.476 64.7604 146.617 67.3078 146.617C74.7974 146.617 82 145.393 88.7308 143.136C88.8557 143.094 88.9808 143.051 89.1057 143.008L89.099 74.2606H88.7385H88.7308H85.0338H84.9401V63.7945C84.9401 61.8705 86.486 60.1924 88.4401 60.0638C88.5224 60.0549 88.6464 60.0445 88.7308 60.0445C88.7333 60.0445 88.7344 60.0445 88.7385 60.0445C88.8229 60.0445 88.938 60.0549 89.0213 60.0638C89.0474 60.0653 89.0718 60.0742 89.0969 60.0757V43.4112H88.7308H82.439Z" fill="#5C1237"/>
<path d="M64.8878 12.0467C53.4389 12.4507 42.7176 15.716 33.4165 21.148L67.4432 31.4534V29.4894V29.444H64.9874L64.9936 26.28L81.1952 13.4974H81.4744C76.9061 12.52 72.1665 12.0027 67.3077 12.0027C66.4978 12.0027 65.6916 12.0187 64.8878 12.0467Z" fill="#F19914"/>
<path d="M112.513 29.444H110.063V31.4534L113.543 30.3974C113.203 30.076 112.859 29.7574 112.513 29.444Z" fill="#F19914"/>
<path d="M127.842 49.8514L110.063 44.667V47.2973H113.619V50.7597L107.458 53.541L115.521 126.275C127.337 114.148 134.615 97.5785 134.615 79.3102C134.615 68.7452 132.179 58.7493 127.842 49.8514Z" fill="#F19914"/>
<path d="M63.886 47.2973H67.4433V44.667L1.79853 63.7967C0.6224 68.7769 0 73.9712 0 79.3102C0 113.936 26.1475 142.454 59.7735 146.201L70.0475 53.541L63.886 50.7597V47.2973Z" fill="#F19914"/>
<path d="M1.79834 63.7966L67.4431 44.6669V31.4533L33.4165 21.148C17.7295 30.3066 6.08314 45.6305 1.79834 63.7966Z" fill="#F4EC07"/>
<path d="M113.543 30.3973L110.063 31.4533V44.6669L127.842 49.8513C124.269 42.5227 119.403 35.9387 113.543 30.3973Z" fill="#F4EC07"/>
<path d="M106.894 44.6669L97.3263 43.4096V28.62L100.261 29.4893L106.894 31.4533V44.6669ZM107.458 53.5409L113.619 50.7596V47.2972H110.063V44.6669V31.4533V29.4893V29.444H112.513V29.4413V26.4813L112.511 26.28L96.3102 13.4973H96.0236V10.5853H94.4939L92.1138 6.2613H90.9898V3.61863H89.4835V0.729305C89.4835 0.325305 89.133 -4.02965e-05 88.731 -4.02965e-05V15.484V28.62H95.0659V29.4893V43.4112H88.731V60.0445C88.7335 60.0445 88.7346 60.0445 88.7387 60.0445C88.8231 60.0445 88.9382 60.0549 89.0215 60.0638C90.9747 60.1924 92.52 61.8705 92.52 63.7945V74.2606H88.7387H88.731V143.136C98.9862 139.696 108.139 133.852 115.521 126.275L107.458 53.5409Z" fill="#4F112E"/>
<path d="M100.26 29.4894L97.3262 28.6201V43.4097L106.894 44.667V31.4534L100.26 29.4894Z" fill="#FBC814"/>
<path d="M89.0215 60.0639C88.9382 60.055 88.8159 60.0446 88.731 60.0446V74.2607H92.52V63.7946C92.52 61.8706 90.9747 60.1925 89.0215 60.0639Z" fill="#FBC814"/>
<path d="M88.731 29.4893V43.4111H95.0659V28.6199H88.731V29.4893Z" fill="#FBC814"/>
<path d="M70.6118 31.4534V44.667L80.1853 43.4097V28.6201L77.2489 29.4894L70.6118 31.4534Z" fill="#F4EC07"/>
<path d="M88.7307 29.4893V28.6199H82.439V43.4111H88.7307V29.4893Z" fill="#F4EC07"/>
<path d="M84.9399 63.7946V74.2607H88.7306V60.0446C88.6462 60.0446 88.5222 60.055 88.4399 60.0639C86.4858 60.1925 84.9399 61.8706 84.9399 63.7946Z" fill="#F4EC07"/>
<path d="M156.195 98.7138C156.195 99.0382 156.213 99.3595 156.247 99.6825C156.282 100.005 156.367 100.294 156.507 100.547C156.645 100.802 156.863 101.003 157.163 101.153C157.463 101.302 157.891 101.378 158.443 101.378C158.695 101.378 158.899 101.401 159.049 101.447C159.198 101.492 159.295 101.711 159.342 102.104C159.342 102.289 159.291 102.461 159.187 102.623C159.083 102.784 158.927 102.865 158.721 102.865C157.222 102.794 155.791 102.761 154.431 102.761C153.739 102.761 153.061 102.766 152.391 102.779C151.722 102.789 151.018 102.818 150.282 102.865C150.051 102.865 149.89 102.784 149.797 102.623C149.705 102.461 149.659 102.289 149.659 102.104C149.681 101.711 149.774 101.492 149.935 101.447C150.097 101.401 150.293 101.378 150.523 101.378C151.077 101.378 151.503 101.302 151.802 101.153C152.102 101.003 152.322 100.802 152.461 100.547C152.599 100.294 152.685 100.005 152.719 99.6825C152.754 99.3595 152.783 99.0382 152.805 98.7138V84.9846C152.783 84.6617 152.754 84.3387 152.719 84.0158C152.685 83.6929 152.599 83.4065 152.461 83.1513C152.322 82.8986 152.102 82.6971 151.802 82.5471C151.503 82.3961 151.077 82.3221 150.523 82.3221C150.293 82.3221 150.097 82.2997 149.935 82.2529C149.774 82.2059 149.681 81.9871 149.659 81.5955C149.659 81.4117 149.705 81.2387 149.797 81.0773C149.89 80.9158 150.051 80.8351 150.282 80.8351C151.018 80.8805 151.717 80.909 152.373 80.9221C153.031 80.9325 153.706 80.9377 154.397 80.9377C155.781 80.9377 157.222 80.9038 158.721 80.8351C158.927 80.8351 159.083 80.9158 159.187 81.0773C159.291 81.2387 159.342 81.4117 159.342 81.5955C159.295 81.9871 159.198 82.2059 159.049 82.2529C158.899 82.2997 158.695 82.3221 158.443 82.3221C157.891 82.3221 157.463 82.3961 157.163 82.5471C156.863 82.6971 156.645 82.8986 156.507 83.1513C156.367 83.4065 156.282 83.6929 156.247 84.0158C156.213 84.3387 156.195 84.6617 156.195 84.9846V98.7138Z" fill="black"/>
<path d="M167.427 84.9846H167.323L167.394 98.7138C167.394 99.0382 167.403 99.3595 167.427 99.6825C167.451 100.005 167.531 100.294 167.67 100.547C167.807 100.802 168.021 101.003 168.309 101.153C168.597 101.302 169.018 101.378 169.57 101.378C169.826 101.378 170.033 101.401 170.194 101.447C170.354 101.492 170.449 101.711 170.471 102.104C170.471 102.289 170.419 102.461 170.315 102.623C170.211 102.784 170.057 102.865 169.847 102.865C169.479 102.841 169.162 102.823 168.897 102.813C168.631 102.801 168.378 102.789 168.135 102.779C167.894 102.766 167.646 102.761 167.394 102.761C167.138 102.761 166.839 102.761 166.494 102.761C166.149 102.761 165.854 102.761 165.613 102.761C165.37 102.761 165.138 102.766 164.919 102.779C164.701 102.789 164.463 102.801 164.211 102.813C163.957 102.823 163.646 102.841 163.278 102.865C163.047 102.865 162.886 102.784 162.793 102.623C162.701 102.461 162.654 102.289 162.654 102.104C162.678 101.711 162.763 101.492 162.914 101.447C163.065 101.401 163.266 101.378 163.518 101.378C164.073 101.378 164.493 101.302 164.782 101.153C165.069 101.003 165.285 100.802 165.422 100.547C165.561 100.294 165.641 100.005 165.665 99.6825C165.686 99.3595 165.698 99.0382 165.698 98.7138L165.767 84.9846C165.767 84.4549 165.722 84.0226 165.629 83.6877C165.537 83.3543 165.399 83.0939 165.214 82.909C165.029 82.7257 164.791 82.5809 164.506 82.4767C164.217 82.3742 163.865 82.2866 163.451 82.219C163.105 82.1486 162.874 82.0862 162.758 82.0278C162.643 81.9705 162.586 81.7685 162.586 81.4221C162.586 81.0314 162.719 80.8179 162.983 80.783C163.247 80.7475 163.577 80.7309 163.969 80.7309C164.938 80.7309 165.755 80.7893 166.425 80.9038C167.094 81.0199 167.693 81.2153 168.223 81.4923C168.753 81.7685 169.247 82.1434 169.71 82.6163C170.171 83.0887 170.667 83.6825 171.197 84.3961L180.673 96.8466H180.777L180.709 84.9846C180.709 84.6617 180.695 84.3387 180.673 84.0158C180.649 83.6929 180.569 83.4065 180.431 83.1513C180.291 82.8986 180.078 82.6971 179.791 82.5471C179.503 82.3961 179.082 82.3221 178.529 82.3221C178.274 82.3221 178.073 82.2997 177.923 82.2529C177.774 82.2059 177.675 81.9871 177.63 81.5955C177.63 81.4117 177.681 81.2387 177.786 81.0773C177.889 80.9158 178.045 80.8351 178.253 80.8351C178.621 80.857 178.938 80.8753 179.203 80.8857C179.467 80.8986 179.717 80.909 179.946 80.9221C180.178 80.9325 180.419 80.9377 180.673 80.9377C180.926 80.9377 181.227 80.9377 181.573 80.9377C181.917 80.9377 182.211 80.9377 182.454 80.9377C182.695 80.9377 182.933 80.9325 183.163 80.9221C183.394 80.909 183.635 80.8986 183.889 80.8857C184.143 80.8753 184.454 80.857 184.823 80.8351C185.054 80.8351 185.215 80.9158 185.307 81.0773C185.399 81.2387 185.446 81.4117 185.446 81.5955C185.422 81.9871 185.337 82.2059 185.186 82.2529C185.037 82.2997 184.834 82.3221 184.581 82.3221C184.027 82.3221 183.607 82.3961 183.318 82.5471C183.029 82.6971 182.818 82.8986 182.679 83.1513C182.541 83.4065 182.458 83.6929 182.437 84.0158C182.414 84.3387 182.402 84.6617 182.402 84.9846L182.334 102.414C182.31 102.599 182.201 102.722 182.005 102.779C181.809 102.836 181.629 102.865 181.469 102.865C181.03 102.865 180.695 102.715 180.466 102.414L167.427 84.9846Z" fill="black"/>
<path d="M196.159 102.07C196.896 102.07 197.56 101.953 198.147 101.724C198.735 101.492 199.231 101.193 199.634 100.823C200.038 100.456 200.344 100.034 200.551 99.5618C200.758 99.0888 200.862 98.6112 200.862 98.1268C200.862 97.1815 200.572 96.3976 199.998 95.7754C199.42 95.1514 198.706 94.6112 197.852 94.1487C197 93.6878 196.072 93.2503 195.068 92.8352C194.067 92.4196 193.127 91.942 192.25 91.4003C191.375 90.8587 190.643 90.1956 190.055 89.4118C189.466 88.6279 189.162 87.6358 189.138 86.4378C189.115 85.3544 189.288 84.4196 189.656 83.6358C190.026 82.8519 190.55 82.2128 191.231 81.7164C191.91 81.2216 192.712 80.8519 193.634 80.6096C194.556 80.3675 195.547 80.2476 196.608 80.2476C197.37 80.2476 198.142 80.3284 198.926 80.4888C199.708 80.6514 200.412 80.9039 201.035 81.2503C201.658 81.5956 202.164 82.0446 202.558 82.5992C202.948 83.1514 203.144 83.8206 203.144 84.6044C203.144 85.4352 202.862 86.12 202.296 86.6618C201.732 87.2034 201 87.4743 200.102 87.4743C199.502 87.429 199.08 87.2727 198.839 87.0055C198.596 86.7388 198.476 86.5358 198.476 86.3962C198.476 86.3492 198.563 86.2972 198.735 86.2399C198.908 86.1826 199.099 86.0836 199.306 85.9446C199.512 85.805 199.703 85.6139 199.878 85.37C200.05 85.1279 200.135 84.7972 200.135 84.3779C200.135 83.4976 199.802 82.818 199.132 82.344C198.463 81.8675 197.634 81.6306 196.643 81.6306C195.883 81.6306 195.231 81.7295 194.688 81.9263C194.147 82.1227 193.703 82.3779 193.356 82.6904C193.012 83.003 192.758 83.3675 192.596 83.7858C192.435 84.2024 192.354 84.6306 192.354 85.0706C192.354 85.9274 192.584 86.6227 193.047 87.1566C193.508 87.6894 194.198 88.2112 195.122 88.7191C196.159 89.2738 197.214 89.7815 198.286 90.2415C199.356 90.7034 200.338 91.2336 201.226 91.8326C202.112 92.4326 202.839 93.1591 203.403 94.0107C203.968 94.8648 204.251 95.9716 204.251 97.331C204.251 98.2087 204.038 99.0211 203.612 99.7686C203.184 100.519 202.61 101.164 201.883 101.706C201.156 102.248 200.296 102.675 199.306 102.985C198.315 103.297 197.266 103.453 196.159 103.453C193.736 103.453 191.888 103.037 190.608 102.208C189.328 101.378 188.688 100.133 188.688 98.4716C188.688 97.6424 188.971 96.956 189.536 96.4143C190.102 95.8727 190.834 95.6019 191.732 95.6019C192.331 95.6487 192.752 95.8039 192.995 96.068C193.236 96.3336 193.356 96.5358 193.356 96.6748C193.356 96.7206 193.294 96.7727 193.167 96.83C193.04 96.8883 192.896 96.9847 192.735 97.1227C192.572 97.2623 192.43 97.4524 192.302 97.6946C192.176 97.9367 192.112 98.2648 192.112 98.68C192.112 99.7164 192.43 100.542 193.063 101.153C193.698 101.763 194.73 102.07 196.159 102.07Z" fill="black"/>
<path d="M225.444 80.9377C225.698 80.9377 225.91 80.9966 226.083 81.1122C226.256 81.2267 226.343 81.4455 226.343 81.7685L226.482 86.645C226.482 86.8753 226.383 87.0486 226.187 87.1642C225.991 87.2789 225.8 87.3362 225.618 87.3362C225.362 87.3362 225.116 87.2841 224.874 87.1799C224.631 87.0773 224.487 86.9221 224.442 86.7138C224.326 85.9299 224.192 85.2606 224.043 84.7086C223.894 84.1554 223.696 83.6929 223.456 83.3257C223.214 82.9559 222.902 82.6851 222.52 82.5122C222.14 82.3387 221.651 82.2414 221.052 82.219H218.7V98.7138C218.7 99.0382 218.718 99.3595 218.751 99.6825C218.787 100.005 218.872 100.294 219.012 100.547C219.15 100.802 219.368 101.003 219.668 101.153C219.967 101.302 220.395 101.378 220.948 101.378C221.179 101.378 221.375 101.401 221.536 101.447C221.696 101.492 221.79 101.711 221.812 102.104C221.812 102.289 221.766 102.461 221.675 102.623C221.582 102.784 221.42 102.865 221.19 102.865C220.452 102.818 219.755 102.789 219.098 102.779C218.44 102.766 217.778 102.761 217.11 102.761C215.703 102.761 214.262 102.794 212.787 102.865C212.556 102.865 212.394 102.784 212.302 102.623C212.21 102.461 212.164 102.289 212.164 102.104C212.186 101.711 212.274 101.492 212.423 101.447C212.572 101.401 212.774 101.378 213.028 101.378C213.582 101.378 214.008 101.302 214.307 101.153C214.607 101.003 214.827 100.802 214.964 100.547C215.103 100.294 215.19 100.005 215.224 99.6825C215.259 99.3595 215.276 99.0382 215.276 98.7138V82.219H212.891C212.291 82.2414 211.8 82.3387 211.42 82.5122C211.039 82.6851 210.73 82.9559 210.487 83.3257C210.244 83.6929 210.055 84.1554 209.916 84.7086C209.778 85.2606 209.651 85.9299 209.535 86.7138C209.49 86.9221 209.339 87.0773 209.086 87.1799C208.832 87.2841 208.578 87.3362 208.326 87.3362C208.14 87.3362 207.956 87.2789 207.771 87.1642C207.586 87.0486 207.495 86.8753 207.495 86.645L207.599 81.7685C207.599 81.4455 207.69 81.2267 207.875 81.1122C208.06 80.9966 208.279 80.9377 208.532 80.9377H225.444Z" fill="black"/>
<path d="M236.262 98.7138C236.262 99.0382 236.279 99.3595 236.314 99.6825C236.347 100.005 236.435 100.294 236.573 100.547C236.711 100.802 236.93 101.003 237.23 101.153C237.529 101.302 237.957 101.378 238.51 101.378C238.763 101.378 238.965 101.401 239.115 101.447C239.265 101.492 239.362 101.711 239.409 102.104C239.409 102.289 239.357 102.461 239.254 102.623C239.15 102.784 238.994 102.865 238.787 102.865C237.289 102.794 235.858 102.761 234.498 102.761C233.806 102.761 233.126 102.766 232.458 102.779C231.789 102.789 231.086 102.818 230.347 102.865C230.118 102.865 229.957 102.784 229.863 102.623C229.771 102.461 229.726 102.289 229.726 102.104C229.747 101.711 229.842 101.492 230.003 101.447C230.163 101.401 230.359 101.378 230.59 101.378C231.143 101.378 231.569 101.302 231.87 101.153C232.169 101.003 232.389 100.802 232.527 100.547C232.666 100.294 232.751 100.005 232.787 99.6825C232.821 99.3595 232.849 99.0382 232.873 98.7138V84.9846C232.849 84.6617 232.821 84.3387 232.787 84.0158C232.751 83.6929 232.666 83.4065 232.527 83.1513C232.389 82.8986 232.169 82.6971 231.87 82.5471C231.569 82.3961 231.143 82.3221 230.59 82.3221C230.359 82.3221 230.163 82.2997 230.003 82.2529C229.842 82.2059 229.747 81.9871 229.726 81.5955C229.726 81.4117 229.771 81.2387 229.863 81.0773C229.957 80.9158 230.118 80.8351 230.347 80.8351C231.086 80.8805 231.783 80.909 232.441 80.9221C233.098 80.9325 233.771 80.9377 234.463 80.9377C235.846 80.9377 237.289 80.9038 238.787 80.8351C238.994 80.8351 239.15 80.9158 239.254 81.0773C239.357 81.2387 239.409 81.4117 239.409 81.5955C239.362 81.9871 239.265 82.2059 239.115 82.2529C238.965 82.2997 238.763 82.3221 238.51 82.3221C237.957 82.3221 237.529 82.3961 237.23 82.5471C236.93 82.6971 236.711 82.8986 236.573 83.1513C236.435 83.4065 236.347 83.6929 236.314 84.0158C236.279 84.3387 236.262 84.6617 236.262 84.9846V98.7138Z" fill="black"/>
<path d="M260.601 80.9377C260.854 80.9377 261.069 80.9966 261.241 81.1122C261.414 81.2267 261.501 81.4455 261.501 81.7685L261.638 86.645C261.638 86.8753 261.541 87.0486 261.345 87.1642C261.149 87.2789 260.958 87.3362 260.774 87.3362C260.519 87.3362 260.273 87.2841 260.03 87.1799C259.789 87.0773 259.643 86.9221 259.598 86.7138C259.482 85.9299 259.35 85.2606 259.201 84.7086C259.05 84.1554 258.854 83.6929 258.613 83.3257C258.37 82.9559 258.059 82.6851 257.679 82.5122C257.298 82.3387 256.807 82.2414 256.209 82.219H253.857V98.7138C253.857 99.0382 253.874 99.3595 253.909 99.6825C253.945 100.005 254.03 100.294 254.169 100.547C254.307 100.802 254.526 101.003 254.826 101.153C255.125 101.302 255.553 101.378 256.106 101.378C256.337 101.378 256.531 101.401 256.693 101.447C256.854 101.492 256.947 101.711 256.97 102.104C256.97 102.289 256.923 102.461 256.831 102.623C256.739 102.784 256.578 102.865 256.347 102.865C255.61 102.818 254.913 102.789 254.256 102.779C253.598 102.766 252.935 102.761 252.267 102.761C250.859 102.761 249.419 102.794 247.943 102.865C247.713 102.865 247.551 102.784 247.459 102.623C247.367 102.461 247.321 102.289 247.321 102.104C247.345 101.711 247.43 101.492 247.581 101.447C247.731 101.401 247.931 101.378 248.186 101.378C248.739 101.378 249.166 101.302 249.465 101.153C249.765 101.003 249.985 100.802 250.124 100.547C250.261 100.294 250.346 100.005 250.382 99.6825C250.417 99.3595 250.434 99.0382 250.434 98.7138V82.219H248.047C247.449 82.2414 246.958 82.3387 246.577 82.5122C246.197 82.6851 245.886 82.9559 245.643 83.3257C245.402 83.6929 245.211 84.1554 245.073 84.7086C244.935 85.2606 244.807 85.9299 244.693 86.7138C244.646 86.9221 244.497 87.0773 244.243 87.1799C243.99 87.2841 243.735 87.3362 243.482 87.3362C243.297 87.3362 243.114 87.2789 242.929 87.1642C242.743 87.0486 242.653 86.8753 242.653 86.645L242.756 81.7685C242.756 81.4455 242.847 81.2267 243.033 81.1122C243.217 80.9966 243.437 80.9377 243.69 80.9377H260.601Z" fill="black"/>
<path d="M284.697 96.6044C284.697 97.8274 284.433 98.87 283.903 99.7347C283.372 100.599 282.697 101.308 281.88 101.862C281.061 102.414 280.163 102.818 279.181 103.072C278.201 103.326 277.263 103.453 276.364 103.453C274.98 103.453 273.764 103.262 272.716 102.882C271.665 102.502 270.795 102 270.104 101.378C269.412 100.756 268.888 100.046 268.531 99.2503C268.173 98.456 267.995 97.6306 267.995 96.779V84.9847C267.995 84.6618 267.977 84.3388 267.943 84.0159C267.908 83.693 267.821 83.4066 267.683 83.1514C267.545 82.8987 267.325 82.6972 267.025 82.5472C266.727 82.3962 266.299 82.3222 265.745 82.3222C265.493 82.3222 265.291 82.2998 265.141 82.253C264.991 82.206 264.904 81.9872 264.883 81.5956C264.883 81.4118 264.928 81.2388 265.02 81.0774C265.112 80.9159 265.275 80.8352 265.505 80.8352C266.241 80.8806 266.933 80.9091 267.579 80.9222C268.225 80.9326 268.895 80.9378 269.585 80.9378C270.968 80.9378 272.409 80.9039 273.908 80.8352C274.139 80.8352 274.3 80.9159 274.393 81.0774C274.484 81.2388 274.531 81.4118 274.531 81.5956C274.508 81.942 274.439 82.1487 274.323 82.2191C274.208 82.2867 274.047 82.3222 273.84 82.3222C273.239 82.3222 272.784 82.3962 272.472 82.5472C272.163 82.6972 271.925 82.8924 271.764 83.1347C271.603 83.3768 271.505 83.6591 271.469 83.982C271.436 84.305 271.419 84.6383 271.419 84.9847V95.7754C271.419 96.3754 271.475 97.003 271.591 97.6591C271.707 98.317 271.955 98.9222 272.335 99.4758C272.716 100.029 273.269 100.49 273.995 100.86C274.721 101.228 275.695 101.412 276.917 101.412C278.092 101.412 279.056 101.262 279.804 100.963C280.555 100.663 281.148 100.266 281.585 99.7686C282.023 99.2738 282.329 98.7206 282.503 98.1096C282.676 97.4992 282.761 96.882 282.761 96.2582V87.1643C282.761 86.0342 282.733 85.1462 282.676 84.5003C282.617 83.8544 282.497 83.3716 282.312 83.0487C282.127 82.7258 281.856 82.5238 281.5 82.443C281.141 82.3623 280.676 82.3222 280.099 82.3222C279.868 82.3222 279.672 82.2998 279.511 82.253C279.348 82.206 279.257 81.9872 279.235 81.5956C279.235 81.4118 279.28 81.2388 279.372 81.0774C279.464 80.9159 279.625 80.8352 279.856 80.8352C280.595 80.8806 281.251 80.9091 281.828 80.9222C282.403 80.9326 283.037 80.9378 283.731 80.9378C284.421 80.9378 285.056 80.9326 285.632 80.9222C286.208 80.9091 286.865 80.8806 287.604 80.8352C287.835 80.8352 287.996 80.9159 288.087 81.0774C288.179 81.2388 288.227 81.4118 288.227 81.5956C288.203 81.942 288.133 82.1487 288.017 82.2191C287.901 82.2867 287.741 82.3222 287.533 82.3222C286.911 82.3222 286.411 82.3571 286.029 82.4248C285.649 82.4951 285.36 82.68 285.165 82.9795C284.968 83.279 284.843 83.7399 284.785 84.3623C284.728 84.9847 284.697 85.8492 284.697 86.956V96.6044Z" fill="black"/>
<path d="M309.419 80.9377C309.674 80.9377 309.886 80.9966 310.059 81.1122C310.232 81.2267 310.318 81.4455 310.318 81.7685L310.458 86.645C310.458 86.8753 310.358 87.0486 310.163 87.1642C309.966 87.2789 309.776 87.3362 309.592 87.3362C309.338 87.3362 309.091 87.2841 308.848 87.1799C308.607 87.0773 308.462 86.9221 308.416 86.7138C308.3 85.9299 308.168 85.2606 308.018 84.7086C307.868 84.1554 307.672 83.6929 307.431 83.3257C307.188 82.9559 306.878 82.6851 306.496 82.5122C306.116 82.3387 305.626 82.2414 305.027 82.219H302.676V98.7138C302.676 99.0382 302.692 99.3595 302.727 99.6825C302.762 100.005 302.847 100.294 302.987 100.547C303.124 100.802 303.344 101.003 303.643 101.153C303.943 101.302 304.37 101.378 304.923 101.378C305.154 101.378 305.35 101.401 305.512 101.447C305.672 101.492 305.764 101.711 305.788 102.104C305.788 102.289 305.74 102.461 305.65 102.623C305.558 102.784 305.396 102.865 305.166 102.865C304.427 102.818 303.731 102.789 303.072 102.779C302.415 102.766 301.752 102.761 301.084 102.761C299.678 102.761 298.236 102.794 296.762 102.865C296.531 102.865 296.37 102.784 296.278 102.623C296.184 102.461 296.139 102.289 296.139 102.104C296.162 101.711 296.247 101.492 296.399 101.447C296.548 101.401 296.75 101.378 297.004 101.378C297.558 101.378 297.983 101.302 298.283 101.153C298.582 101.003 298.802 100.802 298.94 100.547C299.078 100.294 299.166 100.005 299.199 99.6825C299.235 99.3595 299.251 99.0382 299.251 98.7138V82.219H296.864C296.266 82.2414 295.776 82.3387 295.396 82.5122C295.014 82.6851 294.703 82.9559 294.46 83.3257C294.22 83.6929 294.028 84.1554 293.891 84.7086C293.752 85.2606 293.624 85.9299 293.511 86.7138C293.463 86.9221 293.314 87.0773 293.062 87.1799C292.807 87.2841 292.554 87.3362 292.3 87.3362C292.116 87.3362 291.931 87.2789 291.747 87.1642C291.563 87.0486 291.47 86.8753 291.47 86.645L291.574 81.7685C291.574 81.4455 291.666 81.2267 291.85 81.1122C292.035 80.9966 292.254 80.9377 292.508 80.9377H309.419Z" fill="black"/>
<path d="M320.236 98.7138C320.236 99.0382 320.254 99.3595 320.29 99.6825C320.323 100.005 320.408 100.294 320.548 100.547C320.686 100.802 320.904 101.003 321.204 101.153C321.504 101.302 321.931 101.378 322.484 101.378C322.738 101.378 322.94 101.401 323.09 101.447C323.239 101.492 323.338 101.711 323.384 102.104C323.384 102.289 323.332 102.461 323.23 102.623C323.124 102.784 322.968 102.865 322.762 102.865C321.263 102.794 319.834 102.761 318.472 102.761C317.782 102.761 317.102 102.766 316.432 102.779C315.763 102.789 315.06 102.818 314.323 102.865C314.092 102.865 313.931 102.784 313.839 102.623C313.746 102.461 313.7 102.289 313.7 102.104C313.723 101.711 313.815 101.492 313.976 101.447C314.138 101.401 314.335 101.378 314.566 101.378C315.119 101.378 315.544 101.302 315.846 101.153C316.143 101.003 316.363 100.802 316.503 100.547C316.64 100.294 316.727 100.005 316.76 99.6825C316.795 99.3595 316.824 99.0382 316.847 98.7138V84.9846C316.824 84.6617 316.795 84.3387 316.76 84.0158C316.727 83.6929 316.64 83.4065 316.503 83.1513C316.363 82.8986 316.143 82.6971 315.846 82.5471C315.544 82.3961 315.119 82.3221 314.566 82.3221C314.335 82.3221 314.138 82.2997 313.976 82.2529C313.815 82.2059 313.723 81.9871 313.7 81.5955C313.7 81.4117 313.746 81.2387 313.839 81.0773C313.931 80.9158 314.092 80.8351 314.323 80.8351C315.06 80.8805 315.758 80.909 316.415 80.9221C317.072 80.9325 317.746 80.9377 318.438 80.9377C319.822 80.9377 321.263 80.9038 322.762 80.8351C322.968 80.8351 323.124 80.9158 323.23 81.0773C323.332 81.2387 323.384 81.4117 323.384 81.5955C323.338 81.9871 323.239 82.2059 323.09 82.2529C322.94 82.2997 322.738 82.3221 322.484 82.3221C321.931 82.3221 321.504 82.3961 321.204 82.5471C320.904 82.6971 320.686 82.8986 320.548 83.1513C320.408 83.4065 320.323 83.6929 320.29 84.0158C320.254 84.3387 320.236 84.6617 320.236 84.9846V98.7138Z" fill="black"/>
<path d="M337.624 101.93C338.846 101.93 339.902 101.649 340.79 101.084C341.678 100.519 342.408 99.7582 342.986 98.8014C343.562 97.844 343.988 96.7372 344.266 95.481C344.542 94.2243 344.679 92.9039 344.679 91.5211C344.679 90.2295 344.536 88.9915 344.247 87.8024C343.959 86.6164 343.522 85.5732 342.934 84.6738C342.346 83.7738 341.608 83.0602 340.72 82.529C339.832 82.0003 338.8 81.7347 337.624 81.7347C336.402 81.7347 335.354 82.0107 334.478 82.5643C333.602 83.1175 332.882 83.8675 332.316 84.8128C331.751 85.7582 331.336 86.8519 331.071 88.0967C330.806 89.3415 330.674 90.6566 330.674 92.0394C330.674 93.3544 330.812 94.6044 331.088 95.792C331.366 96.9795 331.791 98.029 332.368 98.9394C332.944 99.8508 333.671 100.577 334.547 101.118C335.423 101.659 336.45 101.93 337.624 101.93ZM337.66 80.2476C339.39 80.2476 340.939 80.5576 342.311 81.18C343.682 81.8024 344.847 82.6383 345.804 83.6878C346.76 84.7372 347.499 85.942 348.018 87.3024C348.536 88.6618 348.795 90.068 348.795 91.5211C348.795 93.4352 348.456 95.1306 347.776 96.6044C347.095 98.081 346.219 99.3258 345.147 100.34C344.075 101.354 342.876 102.128 341.55 102.657C340.224 103.188 338.927 103.453 337.66 103.453C335.954 103.453 334.42 103.141 333.06 102.519C331.699 101.896 330.547 101.06 329.602 100.011C328.656 98.9628 327.924 97.7582 327.406 96.3976C326.887 95.0367 326.627 93.62 326.627 92.1435C326.627 90.2295 326.96 88.5358 327.63 87.0602C328.298 85.5852 329.163 84.3388 330.224 83.3258C331.284 82.3102 332.472 81.5446 333.787 81.0254C335.1 80.5055 336.392 80.2476 337.66 80.2476Z" fill="black"/>
<path d="M356.88 84.9846H356.778L356.846 98.7138C356.846 99.0382 356.856 99.3595 356.88 99.6825C356.903 100.005 356.984 100.294 357.123 100.547C357.262 100.802 357.474 101.003 357.763 101.153C358.051 101.302 358.471 101.378 359.024 101.378C359.279 101.378 359.486 101.401 359.647 101.447C359.808 101.492 359.902 101.711 359.924 102.104C359.924 102.289 359.872 102.461 359.768 102.623C359.664 102.784 359.51 102.865 359.302 102.865C358.932 102.841 358.616 102.823 358.35 102.813C358.086 102.801 357.832 102.789 357.59 102.779C357.347 102.766 357.1 102.761 356.846 102.761C356.592 102.761 356.292 102.761 355.947 102.761C355.602 102.761 355.307 102.761 355.066 102.761C354.823 102.761 354.592 102.766 354.374 102.779C354.154 102.789 353.918 102.801 353.664 102.813C353.41 102.823 353.099 102.841 352.731 102.865C352.5 102.865 352.339 102.784 352.246 102.623C352.154 102.461 352.108 102.289 352.108 102.104C352.131 101.711 352.218 101.492 352.367 101.447C352.516 101.401 352.719 101.378 352.972 101.378C353.526 101.378 353.947 101.302 354.235 101.153C354.523 101.003 354.736 100.802 354.875 100.547C355.012 100.294 355.094 100.005 355.118 99.6825C355.139 99.3595 355.151 99.0382 355.151 98.7138L355.22 84.9846C355.22 84.4549 355.175 84.0226 355.082 83.6877C354.99 83.3543 354.851 83.0939 354.667 82.909C354.482 82.7257 354.246 82.5809 353.958 82.4767C353.67 82.3742 353.319 82.2866 352.903 82.219C352.558 82.1486 352.327 82.0862 352.212 82.0278C352.096 81.9705 352.039 81.7685 352.039 81.4221C352.039 81.0314 352.172 80.8179 352.436 80.783C352.702 80.7475 353.03 80.7309 353.422 80.7309C354.391 80.7309 355.208 80.7893 355.878 80.9038C356.547 81.0199 357.146 81.2153 357.676 81.4923C358.207 81.7685 358.702 82.1434 359.163 82.6163C359.624 83.0887 360.12 83.6825 360.65 84.3961L370.126 96.8466H370.23L370.162 84.9846C370.162 84.6617 370.148 84.3387 370.126 84.0158C370.103 83.6929 370.022 83.4065 369.884 83.1513C369.746 82.8986 369.532 82.6971 369.244 82.5471C368.956 82.3961 368.535 82.3221 367.982 82.3221C367.728 82.3221 367.526 82.2997 367.376 82.2529C367.227 82.2059 367.128 81.9871 367.083 81.5955C367.083 81.4117 367.134 81.2387 367.238 81.0773C367.343 80.9158 367.498 80.8351 367.706 80.8351C368.074 80.857 368.391 80.8753 368.656 80.8857C368.92 80.8986 369.17 80.909 369.4 80.9221C369.63 80.9325 369.872 80.9377 370.126 80.9377C370.38 80.9377 370.679 80.9377 371.026 80.9377C371.371 80.9377 371.666 80.9377 371.907 80.9377C372.15 80.9377 372.386 80.9325 372.616 80.9221C372.846 80.909 373.088 80.8986 373.343 80.8857C373.596 80.8753 373.907 80.857 374.276 80.8351C374.507 80.8351 374.668 80.9158 374.76 81.0773C374.852 81.2387 374.899 81.4117 374.899 81.5955C374.876 81.9871 374.79 82.2059 374.639 82.2529C374.49 82.2997 374.288 82.3221 374.034 82.3221C373.48 82.3221 373.06 82.3961 372.772 82.5471C372.483 82.6971 372.271 82.8986 372.132 83.1513C371.994 83.4065 371.912 83.6929 371.89 84.0158C371.867 84.3387 371.855 84.6617 371.855 84.9846L371.787 102.414C371.763 102.599 371.654 102.722 371.458 102.779C371.262 102.836 371.083 102.865 370.922 102.865C370.483 102.865 370.148 102.715 369.919 102.414L356.88 84.9846Z" fill="black"/>
<path d="M164.641 43.9962C164.946 43.9962 165.201 44.0654 165.409 44.2034C165.618 44.3421 165.721 44.605 165.721 44.9921L165.886 50.8435C165.886 51.1201 165.769 51.3279 165.534 51.4665C165.297 51.6045 165.069 51.6738 164.849 51.6738C164.545 51.6738 164.247 51.6118 163.957 51.4867C163.667 51.3623 163.493 51.1754 163.438 50.9269C163.298 49.9863 163.141 49.1831 162.961 48.5197C162.781 47.8561 162.545 47.3025 162.255 46.8597C161.963 46.417 161.591 46.0915 161.133 45.8842C160.678 45.6769 160.089 45.5597 159.37 45.5315H156.549V65.3274C156.549 65.7154 156.569 66.1019 156.611 66.4894C156.651 66.8774 156.755 67.2222 156.922 67.5269C157.089 67.8315 157.35 68.0733 157.711 68.253C158.07 68.4331 158.582 68.5227 159.246 68.5227C159.522 68.5227 159.758 68.5509 159.953 68.6061C160.145 68.6618 160.255 68.9243 160.285 69.3941C160.285 69.6165 160.227 69.8233 160.118 70.0165C160.007 70.2102 159.813 70.3071 159.537 70.3071C158.651 70.2519 157.815 70.2175 157.026 70.2034C156.237 70.1894 155.442 70.1826 154.639 70.1826C152.951 70.1826 151.222 70.2243 149.451 70.3071C149.175 70.3071 148.982 70.2102 148.87 70.0165C148.761 69.8233 148.706 69.6165 148.706 69.3941C148.733 68.9243 148.837 68.6618 149.015 68.6061C149.195 68.5509 149.438 68.5227 149.742 68.5227C150.406 68.5227 150.917 68.4331 151.279 68.253C151.637 68.0733 151.902 67.8315 152.067 67.5269C152.233 67.2222 152.337 66.8774 152.378 66.4894C152.419 66.1019 152.441 65.7154 152.441 65.3274V45.5315H149.575C148.857 45.5597 148.27 45.6769 147.813 45.8842C147.355 46.0915 146.982 46.417 146.691 46.8597C146.402 47.3025 146.174 47.8561 146.009 48.5197C145.842 49.1831 145.689 49.9863 145.551 50.9269C145.495 51.1754 145.315 51.3623 145.011 51.4867C144.707 51.6118 144.402 51.6738 144.099 51.6738C143.877 51.6738 143.655 51.6045 143.435 51.4665C143.213 51.3279 143.102 51.1201 143.102 50.8435L143.227 44.9921C143.227 44.605 143.338 44.3421 143.559 44.2034C143.781 44.0654 144.043 43.9962 144.346 43.9962H164.641Z" fill="black"/>
<path d="M171.779 60.0982H180.493L176.302 49.4326H176.178L171.779 60.0982ZM173.438 43.7473C174.294 43.7473 175.05 43.8091 175.701 43.9342C176.349 44.0587 176.93 44.2733 177.443 44.5774C177.955 44.8821 178.418 45.3243 178.834 45.9045C179.247 46.4863 179.649 47.2326 180.037 48.1462L187.009 65.3274C187.146 65.6873 187.299 66.053 187.465 66.4269C187.63 66.8009 187.825 67.1399 188.047 67.4435C188.269 67.7482 188.53 68.0034 188.835 68.2113C189.138 68.4191 189.513 68.5227 189.957 68.5227C190.259 68.5227 190.502 68.5509 190.681 68.6061C190.861 68.6618 190.963 68.9243 190.993 69.3941C190.993 69.6165 190.93 69.8233 190.806 70.0165C190.681 70.2102 190.495 70.3071 190.245 70.3071C189.359 70.2519 188.586 70.2175 187.922 70.2034C187.258 70.1894 186.511 70.1826 185.679 70.1826C184.021 70.1826 182.305 70.2243 180.534 70.3071C180.258 70.3071 180.065 70.2102 179.954 70.0165C179.843 69.8233 179.789 69.6165 179.789 69.3941C179.815 68.9243 179.919 68.6618 180.099 68.6061C180.279 68.5509 180.521 68.5227 180.826 68.5227C181.49 68.5227 182.001 68.4607 182.361 68.3358C182.721 68.2113 182.949 68.0249 183.046 67.7758C183.142 67.5269 183.157 67.2019 183.086 66.8009C183.018 66.4003 182.873 65.9082 182.651 65.3274L181.239 61.8826H170.99C170.326 63.5706 169.883 64.7191 169.662 65.3274C169.441 66.0473 169.289 66.6139 169.206 67.0285C169.123 67.4435 169.165 67.7623 169.33 67.9837C169.495 68.2055 169.807 68.3509 170.263 68.4191C170.719 68.4889 171.349 68.5227 172.151 68.5227C172.457 68.5227 172.698 68.5509 172.878 68.6061C173.058 68.6618 173.162 68.9243 173.189 69.3941C173.189 69.6165 173.127 69.8233 173.003 70.0165C172.878 70.2102 172.691 70.3071 172.442 70.3071C171.558 70.2519 170.789 70.2175 170.138 70.2034C169.489 70.1894 168.749 70.1826 167.919 70.1826C167.503 70.1826 167.143 70.1826 166.839 70.1826C166.534 70.1826 166.237 70.1894 165.949 70.2034C165.657 70.2175 165.351 70.231 165.034 70.2451C164.717 70.2587 164.337 70.2801 163.894 70.3071C163.618 70.3071 163.422 70.2102 163.313 70.0165C163.202 69.8233 163.146 69.6165 163.146 69.3941C163.175 68.9243 163.278 68.6618 163.458 68.6061C163.638 68.5509 163.878 68.5227 164.182 68.5227C164.737 68.5227 165.185 68.4331 165.533 68.253C165.878 68.0733 166.169 67.8315 166.403 67.5269C166.638 67.2222 166.839 66.8774 167.006 66.4894C167.173 66.1019 167.338 65.7154 167.503 65.3274L174.766 48.1462C174.958 47.6482 175.029 47.2473 174.974 46.9425C174.917 46.6383 174.787 46.3899 174.578 46.1957C174.373 46.0025 174.109 45.8571 173.791 45.7597C173.471 45.6634 173.147 45.5867 172.815 45.5315C172.402 45.4482 172.125 45.3727 171.986 45.303C171.846 45.2347 171.779 44.9921 171.779 44.5774C171.779 44.1071 171.938 43.8509 172.255 43.8091C172.573 43.7681 172.966 43.7473 173.438 43.7473Z" fill="black"/>
<path d="M210.138 47.6899C210.69 47.081 210.948 46.6102 210.905 46.2785C210.865 45.9467 210.485 45.753 209.764 45.6977C209.404 45.6701 209.212 45.3801 209.182 44.8258C209.182 44.5774 209.253 44.3561 209.392 44.1618C209.529 43.9691 209.709 43.8717 209.93 43.8717C210.649 43.9274 211.41 43.9623 212.214 43.9754C213.016 43.9894 213.777 43.9962 214.496 43.9962C215.049 43.9962 215.68 43.9821 216.385 43.955C217.089 43.9274 217.718 43.8993 218.273 43.8717C218.549 43.8717 218.749 43.9691 218.874 44.1618C219 44.3561 219.061 44.5774 219.061 44.8258C219.005 45.241 218.908 45.4899 218.77 45.5727C218.632 45.6561 218.452 45.6977 218.232 45.6977C217.18 45.6425 216.162 45.8087 215.18 46.1957C214.198 46.5831 213.14 47.3441 212.006 48.4785C211.534 48.9763 210.92 49.6197 210.16 50.4082C209.398 51.1967 208.657 51.9639 207.938 52.7113C207.081 53.5967 206.196 54.5233 205.282 55.4915C206.914 57.4837 208.569 59.303 210.241 60.9487C211.916 62.5957 213.346 64.055 214.537 65.3274C215.008 65.7977 215.422 66.2191 215.782 66.593C216.141 66.9665 216.494 67.2853 216.841 67.5473C217.186 67.8107 217.538 68.0249 217.9 68.1905C218.258 68.3566 218.673 68.4681 219.144 68.5227C219.365 68.5509 219.586 68.5853 219.808 68.6269C220.029 68.6681 220.153 68.9243 220.181 69.3941C220.181 69.6165 220.125 69.8233 220.014 70.0165C219.904 70.2102 219.71 70.3071 219.434 70.3071C218.992 70.2801 218.638 70.2587 218.376 70.2451C218.113 70.231 217.864 70.2175 217.629 70.2034C217.394 70.1894 217.152 70.1826 216.902 70.1826C216.654 70.1826 216.322 70.1826 215.906 70.1826H213.25C211.73 68.4962 210.173 66.7587 208.582 64.9743C206.99 63.1899 205.282 61.2326 203.457 59.1019C202.958 58.5211 202.496 58.1139 202.066 57.8779C201.637 57.643 201.201 57.4977 200.76 57.4421V65.3274C200.76 65.7154 200.78 66.1019 200.821 66.4894C200.862 66.8774 200.966 67.2222 201.133 67.5269C201.298 67.8315 201.562 68.0733 201.921 68.253C202.281 68.4331 202.792 68.5227 203.457 68.5227C203.761 68.5227 204.004 68.5509 204.182 68.6061C204.362 68.6618 204.466 68.9243 204.494 69.3941C204.494 69.6165 204.438 69.8233 204.329 70.0165C204.217 70.2102 204.024 70.3071 203.748 70.3071C201.949 70.2243 200.234 70.1826 198.601 70.1826C197.772 70.1826 196.961 70.1894 196.173 70.2034C195.386 70.2175 194.548 70.2519 193.662 70.3071C193.386 70.3071 193.19 70.2102 193.081 70.0165C192.97 69.8233 192.916 69.6165 192.916 69.3941C192.944 68.9243 193.046 68.6618 193.228 68.6061C193.406 68.5509 193.649 68.5227 193.954 68.5227C194.618 68.5227 195.128 68.4331 195.489 68.253C195.846 68.0733 196.112 67.8315 196.277 67.5269C196.444 67.2222 196.548 66.8774 196.589 66.4894C196.63 66.1019 196.65 65.7154 196.65 65.3274V48.8514C196.65 48.4643 196.63 48.0774 196.589 47.6899C196.548 47.3025 196.444 46.9571 196.277 46.6525C196.112 46.3482 195.846 46.1061 195.489 45.9254C195.128 45.7467 194.618 45.6561 193.954 45.6561C193.649 45.6561 193.406 45.629 193.228 45.5727C193.046 45.5181 192.944 45.2555 192.916 44.7842C192.916 44.5358 192.97 44.3222 193.081 44.141C193.19 43.9623 193.386 43.8717 193.662 43.8717C194.548 43.9274 195.378 43.9623 196.153 43.9754C196.928 43.9894 197.73 43.9962 198.56 43.9962C200.22 43.9962 201.949 43.955 203.748 43.8717C204.024 43.8717 204.217 43.955 204.329 44.1201C204.438 44.2863 204.494 44.5082 204.494 44.7842C204.466 45.1998 204.376 45.4482 204.225 45.5315C204.072 45.6143 203.816 45.6561 203.457 45.6561C202.792 45.6561 202.281 45.7467 201.921 45.9254C201.562 46.1061 201.298 46.3482 201.133 46.6525C200.966 46.9571 200.862 47.3025 200.821 47.6899C200.78 48.0774 200.76 48.4643 200.76 48.8514V56.3634C201.23 56.253 201.777 55.9763 202.4 55.5331C203.021 55.091 203.65 54.593 204.288 54.0394C205.338 53.0706 206.362 52.0263 207.357 50.9061C208.354 49.7858 209.28 48.7134 210.138 47.6899Z" fill="black"/>
<path d="M231.068 69.3528C231.954 69.3528 232.748 69.2142 233.455 68.9376C234.16 68.6616 234.754 68.3018 235.238 67.8586C235.723 67.4163 236.088 66.9111 236.339 66.3439C236.587 65.7767 236.711 65.2028 236.711 64.622C236.711 63.4871 236.364 62.5466 235.675 61.7996C234.982 61.0523 234.124 60.4028 233.1 59.8491C232.076 59.296 230.963 58.7699 229.76 58.2715C228.558 57.7736 227.43 57.2002 226.378 56.5496C225.327 55.9002 224.448 55.1043 223.742 54.1638C223.036 53.2236 222.671 52.0335 222.643 50.595C222.616 49.2944 222.823 48.1742 223.266 47.2324C223.708 46.2923 224.338 45.5252 225.154 44.9294C225.968 44.3351 226.931 43.8923 228.038 43.6018C229.144 43.3106 230.335 43.1658 231.607 43.1658C232.519 43.1658 233.447 43.2632 234.388 43.457C235.328 43.6502 236.172 43.9548 236.919 44.3695C237.667 44.784 238.275 45.3242 238.744 45.9876C239.215 46.6523 239.451 47.4548 239.451 48.395C239.451 49.3908 239.112 50.2142 238.434 50.8642C237.755 51.5147 236.878 51.8398 235.798 51.8398C235.079 51.7835 234.574 51.596 234.284 51.2762C233.994 50.9554 233.847 50.7127 233.847 50.5455C233.847 50.4892 233.952 50.4272 234.16 50.358C234.367 50.2887 234.595 50.1699 234.844 50.0028C235.092 49.8356 235.322 49.6064 235.528 49.3142C235.736 49.0226 235.84 48.6252 235.84 48.1242C235.84 47.0668 235.439 46.2523 234.636 45.6819C233.834 45.1111 232.838 44.8256 231.649 44.8256C230.735 44.8256 229.954 44.945 229.303 45.1808C228.654 45.4168 228.122 45.7231 227.706 46.098C227.291 46.4736 226.987 46.9111 226.792 47.4116C226.599 47.9127 226.503 48.4267 226.503 48.9548C226.503 49.9835 226.779 50.8174 227.332 51.457C227.886 52.096 228.716 52.722 229.823 53.3335C231.068 53.9975 232.334 54.6064 233.62 55.159C234.906 55.7132 236.082 56.3491 237.147 57.069C238.213 57.7887 239.083 58.6595 239.762 59.683C240.44 60.7075 240.779 62.0351 240.779 63.6668C240.779 64.719 240.522 65.6944 240.011 66.5928C239.499 67.4923 238.807 68.2674 237.936 68.9168C237.064 69.5674 236.032 70.0794 234.844 70.4523C233.654 70.8256 232.396 71.0127 231.068 71.0127C228.163 71.0127 225.943 70.5147 224.406 69.5184C222.871 68.5226 222.104 67.0283 222.104 65.0366C222.104 64.0408 222.442 63.2179 223.12 62.5674C223.798 61.9179 224.678 61.5919 225.755 61.5919C226.475 61.6475 226.98 61.8346 227.271 62.1528C227.562 62.4704 227.706 62.7127 227.706 62.8788C227.706 62.9346 227.628 62.9966 227.478 63.0652C227.326 63.1346 227.152 63.2523 226.958 63.4184C226.766 63.5846 226.592 63.8127 226.44 64.1032C226.288 64.3934 226.213 64.7882 226.213 65.2856C226.213 66.5304 226.592 67.5204 227.352 68.2528C228.114 68.9866 229.351 69.3528 231.068 69.3528Z" fill="black"/>
<path d="M250.545 57.9815V65.3274C250.545 65.7154 250.566 66.1019 250.607 66.4894C250.649 66.8774 250.753 67.2222 250.918 67.5269C251.083 67.8315 251.346 68.0733 251.707 68.253C252.067 68.4331 252.578 68.5227 253.242 68.5227C253.547 68.5227 253.789 68.5509 253.969 68.6061C254.149 68.6618 254.251 68.9243 254.279 69.3941C254.279 69.6165 254.225 69.8233 254.114 70.0165C254.003 70.2102 253.809 70.3071 253.533 70.3071C251.735 70.2243 250.019 70.1826 248.387 70.1826C247.558 70.1826 246.747 70.1894 245.958 70.2034C245.171 70.2175 244.334 70.2519 243.449 70.3071C243.171 70.3071 242.977 70.2102 242.867 70.0165C242.757 69.8233 242.702 69.6165 242.702 69.3941C242.729 68.9243 242.833 68.6618 243.013 68.6061C243.191 68.5509 243.434 68.5227 243.738 68.5227C244.402 68.5227 244.914 68.4331 245.275 68.253C245.633 68.0733 245.898 67.8315 246.063 67.5269C246.23 67.2222 246.333 66.8774 246.374 66.4894C246.415 66.1019 246.437 65.7154 246.437 65.3274V48.8514C246.437 48.4643 246.415 48.0774 246.374 47.6899C246.333 47.3025 246.23 46.9571 246.063 46.6525C245.898 46.3482 245.633 46.1061 245.275 45.9254C244.914 45.7467 244.402 45.6561 243.738 45.6561C243.434 45.6561 243.191 45.629 243.013 45.5727C242.833 45.5181 242.729 45.2555 242.702 44.7842C242.702 44.5639 242.757 44.3561 242.867 44.1618C242.977 43.9691 243.171 43.8717 243.449 43.8717C244.334 43.9274 245.163 43.9623 245.939 43.9754C246.713 43.9894 247.515 43.9962 248.346 43.9962C250.006 43.9962 251.735 43.955 253.533 43.8717C253.809 43.8717 254.003 43.9691 254.114 44.1618C254.225 44.3561 254.279 44.5639 254.279 44.7842C254.251 45.2555 254.149 45.5181 253.969 45.5727C253.789 45.629 253.547 45.6561 253.242 45.6561C252.578 45.6561 252.067 45.7467 251.707 45.9254C251.346 46.1061 251.083 46.3482 250.918 46.6525C250.753 46.9571 250.649 47.3025 250.607 47.6899C250.566 48.0774 250.545 48.4643 250.545 48.8514V56.1973H263.575V48.8514C263.575 48.4643 263.555 48.0774 263.513 47.6899C263.471 47.3025 263.369 46.9571 263.202 46.6525C263.037 46.3482 262.774 46.1061 262.414 45.9254C262.054 45.7467 261.542 45.6561 260.878 45.6561C260.573 45.6561 260.325 45.629 260.131 45.5727C259.938 45.5181 259.827 45.2555 259.799 44.7842C259.799 44.5639 259.862 44.3561 259.986 44.1618C260.111 43.9691 260.297 43.8717 260.546 43.8717C262.317 43.955 264.046 43.9962 265.735 43.9962C266.565 43.9962 267.373 43.9894 268.162 43.9754C268.95 43.9623 269.787 43.9274 270.673 43.8717C270.922 43.8717 271.109 43.9691 271.233 44.1618C271.357 44.3561 271.419 44.5639 271.419 44.7842C271.393 45.2555 271.282 45.5181 271.087 45.5727C270.894 45.629 270.658 45.6561 270.382 45.6561C269.719 45.6561 269.206 45.7467 268.846 45.9254C268.487 46.1061 268.217 46.3482 268.037 46.6525C267.857 46.9571 267.746 47.3025 267.705 47.6899C267.663 48.0774 267.643 48.4643 267.643 48.8514V65.3274C267.643 65.7154 267.663 66.1019 267.705 66.4894C267.746 66.8774 267.857 67.2222 268.037 67.5269C268.217 67.8315 268.487 68.0733 268.846 68.253C269.206 68.4331 269.719 68.5227 270.382 68.5227C270.658 68.5227 270.894 68.5509 271.087 68.6061C271.282 68.6618 271.393 68.9243 271.419 69.3941C271.419 69.6165 271.357 69.8233 271.233 70.0165C271.109 70.2102 270.922 70.3071 270.673 70.3071C269.787 70.2519 268.943 70.2175 268.141 70.2034C267.338 70.1894 266.522 70.1826 265.693 70.1826C264.033 70.1826 262.317 70.2243 260.546 70.3071C260.297 70.3071 260.111 70.2102 259.986 70.0165C259.862 69.8233 259.799 69.6165 259.799 69.3941C259.827 68.9243 259.938 68.6618 260.131 68.6061C260.325 68.5509 260.573 68.5227 260.878 68.5227C261.542 68.5227 262.054 68.4331 262.414 68.253C262.774 68.0733 263.037 67.8315 263.202 67.5269C263.369 67.2222 263.471 66.8774 263.513 66.4894C263.555 66.1019 263.575 65.7154 263.575 65.3274V57.9815H250.545Z" fill="black"/>
<path d="M281.974 60.0982H290.688L286.498 49.4326H286.372L281.974 60.0982ZM283.632 43.7473C284.491 43.7473 285.244 43.8091 285.896 43.9342C286.546 44.0587 287.126 44.2733 287.638 44.5774C288.15 44.8821 288.614 45.3243 289.028 45.9045C289.444 46.4863 289.844 47.2326 290.232 48.1462L297.204 65.3274C297.343 65.6873 297.495 66.053 297.662 66.4269C297.827 66.8009 298.019 67.1399 298.242 67.4435C298.463 67.7482 298.726 68.0034 299.03 68.2113C299.335 68.4191 299.708 68.5227 300.151 68.5227C300.455 68.5227 300.696 68.5509 300.876 68.6061C301.056 68.6618 301.16 68.9243 301.188 69.3941C301.188 69.6165 301.126 69.8233 301.002 70.0165C300.876 70.2102 300.69 70.3071 300.442 70.3071C299.556 70.2519 298.782 70.2175 298.118 70.2034C297.454 70.1894 296.706 70.1826 295.876 70.1826C294.216 70.1826 292.5 70.2243 290.731 70.3071C290.454 70.3071 290.259 70.2102 290.15 70.0165C290.038 69.8233 289.983 69.6165 289.983 69.3941C290.011 68.9243 290.115 68.6618 290.294 68.6061C290.474 68.5509 290.716 68.5227 291.02 68.5227C291.684 68.5227 292.196 68.4607 292.556 68.3358C292.915 68.2113 293.143 68.0249 293.24 67.7758C293.338 67.5269 293.351 67.2019 293.283 66.8009C293.214 66.4003 293.068 65.9082 292.846 65.3274L291.436 61.8826H281.184C280.52 63.5706 280.078 64.7191 279.856 65.3274C279.635 66.0473 279.483 66.6139 279.402 67.0285C279.318 67.4435 279.359 67.7623 279.524 67.9837C279.691 68.2055 280.003 68.3509 280.458 68.4191C280.915 68.4889 281.544 68.5227 282.346 68.5227C282.651 68.5227 282.894 68.5509 283.072 68.6061C283.252 68.6618 283.356 68.9243 283.384 69.3941C283.384 69.6165 283.323 69.8233 283.198 70.0165C283.072 70.2102 282.887 70.3071 282.636 70.3071C281.752 70.2519 280.984 70.2175 280.335 70.2034C279.683 70.1894 278.944 70.1826 278.115 70.1826C277.699 70.1826 277.34 70.1826 277.035 70.1826C276.731 70.1826 276.434 70.1894 276.143 70.2034C275.851 70.2175 275.547 70.231 275.23 70.2451C274.911 70.2587 274.531 70.2801 274.088 70.3071C273.812 70.3071 273.619 70.2102 273.508 70.0165C273.398 69.8233 273.342 69.6165 273.342 69.3941C273.37 68.9243 273.472 68.6618 273.652 68.6061C273.834 68.5509 274.074 68.5227 274.379 68.5227C274.932 68.5227 275.382 68.4331 275.728 68.253C276.072 68.0733 276.363 67.8315 276.599 67.5269C276.834 67.2222 277.035 66.8774 277.2 66.4894C277.367 66.1019 277.532 65.7154 277.699 65.3274L284.96 48.1462C285.155 47.6482 285.224 47.2473 285.17 46.9425C285.114 46.6383 284.983 46.3899 284.775 46.1957C284.568 46.0025 284.303 45.8571 283.987 45.7597C283.668 45.6634 283.343 45.5867 283.011 45.5315C282.596 45.4482 282.319 45.3727 282.18 45.303C282.043 45.2347 281.974 44.9921 281.974 44.5774C281.974 44.1071 282.132 43.8509 282.451 43.8091C282.768 43.7681 283.163 43.7473 283.632 43.7473Z" fill="black"/>
<path d="M312.075 69.3528C312.959 69.3528 313.755 69.2142 314.461 68.9376C315.167 68.6616 315.762 68.3018 316.246 67.8586C316.73 67.4163 317.097 66.9111 317.346 66.3439C317.595 65.7767 317.719 65.2028 317.719 64.622C317.719 63.4871 317.373 62.5466 316.682 61.7996C315.99 61.0523 315.131 60.4028 314.109 59.8491C313.085 59.296 311.971 58.7699 310.769 58.2715C309.565 57.7736 308.437 57.2002 307.386 56.5496C306.334 55.9002 305.457 55.1043 304.75 54.1638C304.045 53.2236 303.678 52.0335 303.65 50.595C303.623 49.2944 303.83 48.1742 304.273 47.2324C304.715 46.2923 305.346 45.5252 306.162 44.9294C306.977 44.3351 307.939 43.8923 309.046 43.6018C310.151 43.3106 311.342 43.1658 312.615 43.1658C313.527 43.1658 314.455 43.2632 315.397 43.457C316.335 43.6502 317.179 43.9548 317.927 44.3695C318.674 44.784 319.282 45.3242 319.753 45.9876C320.223 46.6523 320.458 47.4548 320.458 48.395C320.458 49.3908 320.119 50.2142 319.442 50.8642C318.763 51.5147 317.886 51.8398 316.806 51.8398C316.086 51.7835 315.582 51.596 315.291 51.2762C315.001 50.9554 314.855 50.7127 314.855 50.5455C314.855 50.4892 314.958 50.4272 315.167 50.358C315.374 50.2887 315.603 50.1699 315.851 50.0028C316.101 49.8356 316.329 49.6064 316.537 49.3142C316.743 49.0226 316.847 48.6252 316.847 48.1242C316.847 47.0668 316.447 46.2523 315.645 45.6819C314.842 45.1111 313.846 44.8256 312.657 44.8256C311.743 44.8256 310.961 44.945 310.311 45.1808C309.662 45.4168 309.129 45.7231 308.714 46.098C308.298 46.4736 307.994 46.9111 307.801 47.4116C307.607 47.9127 307.51 48.4267 307.51 48.9548C307.51 49.9835 307.787 50.8174 308.341 51.457C308.894 52.096 309.723 52.722 310.83 53.3335C312.075 53.9975 313.342 54.6064 314.626 55.159C315.914 55.7132 317.089 56.3491 318.155 57.069C319.221 57.7887 320.091 58.6595 320.77 59.683C321.447 60.7075 321.787 62.0351 321.787 63.6668C321.787 64.719 321.53 65.6944 321.018 66.5928C320.506 67.4923 319.815 68.2674 318.943 68.9168C318.071 69.5674 317.041 70.0794 315.851 70.4523C314.662 70.8256 313.403 71.0127 312.075 71.0127C309.17 71.0127 306.95 70.5147 305.414 69.5184C303.879 68.5226 303.111 67.0283 303.111 65.0366C303.111 64.0408 303.45 63.2179 304.127 62.5674C304.806 61.9179 305.683 61.5919 306.763 61.5919C307.482 61.6475 307.987 61.8346 308.278 62.1528C308.569 62.4704 308.714 62.7127 308.714 62.8788C308.714 62.9346 308.637 62.9966 308.485 63.0652C308.334 63.1346 308.159 63.2523 307.966 63.4184C307.773 63.5846 307.599 63.8127 307.449 64.1032C307.295 64.3934 307.219 64.7882 307.219 65.2856C307.219 66.5304 307.599 67.5204 308.361 68.2528C309.122 68.9866 310.359 69.3528 312.075 69.3528Z" fill="black"/>
<path d="M331.553 57.9815V65.3274C331.553 65.7154 331.573 66.1019 331.616 66.4894C331.657 66.8774 331.76 67.2222 331.926 67.5269C332.092 67.8315 332.354 68.0733 332.714 68.253C333.073 68.4331 333.586 68.5227 334.25 68.5227C334.554 68.5227 334.796 68.5509 334.976 68.6061C335.156 68.6618 335.26 68.9243 335.288 69.3941C335.288 69.6165 335.232 69.8233 335.122 70.0165C335.012 70.2102 334.817 70.3071 334.541 70.3071C332.741 70.2243 331.026 70.1826 329.394 70.1826C328.565 70.1826 327.756 70.1894 326.966 70.2034C326.18 70.2175 325.342 70.2519 324.457 70.3071C324.18 70.3071 323.985 70.2102 323.874 70.0165C323.764 69.8233 323.709 69.6165 323.709 69.3941C323.736 68.9243 323.84 68.6618 324.02 68.6061C324.2 68.5509 324.442 68.5227 324.746 68.5227C325.41 68.5227 325.922 68.4331 326.282 68.253C326.641 68.0733 326.904 67.8315 327.069 67.5269C327.236 67.2222 327.341 66.8774 327.382 66.4894C327.424 66.1019 327.444 65.7154 327.444 65.3274V48.8514C327.444 48.4643 327.424 48.0774 327.382 47.6899C327.341 47.3025 327.236 46.9571 327.069 46.6525C326.904 46.3482 326.641 46.1061 326.282 45.9254C325.922 45.7467 325.41 45.6561 324.746 45.6561C324.442 45.6561 324.2 45.629 324.02 45.5727C323.84 45.5181 323.736 45.2555 323.709 44.7842C323.709 44.5639 323.764 44.3561 323.874 44.1618C323.985 43.9691 324.18 43.8717 324.457 43.8717C325.342 43.9274 326.172 43.9623 326.946 43.9754C327.721 43.9894 328.522 43.9962 329.352 43.9962C331.013 43.9962 332.741 43.955 334.541 43.8717C334.817 43.8717 335.012 43.9691 335.122 44.1618C335.232 44.3561 335.288 44.5639 335.288 44.7842C335.26 45.2555 335.156 45.5181 334.976 45.5727C334.796 45.629 334.554 45.6561 334.25 45.6561C333.586 45.6561 333.073 45.7467 332.714 45.9254C332.354 46.1061 332.092 46.3482 331.926 46.6525C331.76 46.9571 331.657 47.3025 331.616 47.6899C331.573 48.0774 331.553 48.4643 331.553 48.8514V56.1973H344.584V48.8514C344.584 48.4643 344.564 48.0774 344.521 47.6899C344.48 47.3025 344.376 46.9571 344.21 46.6525C344.044 46.3482 343.781 46.1061 343.421 45.9254C343.062 45.7467 342.55 45.6561 341.886 45.6561C341.581 45.6561 341.333 45.629 341.14 45.5727C340.946 45.5181 340.834 45.2555 340.808 44.7842C340.808 44.5639 340.869 44.3561 340.994 44.1618C341.118 43.9691 341.305 43.8717 341.554 43.8717C343.325 43.955 345.054 43.9962 346.741 43.9962C347.572 43.9962 348.381 43.9894 349.17 43.9754C349.958 43.9623 350.794 43.9274 351.68 43.8717C351.929 43.8717 352.117 43.9691 352.24 44.1618C352.365 44.3561 352.426 44.5639 352.426 44.7842C352.4 45.2555 352.289 45.5181 352.094 45.5727C351.902 45.629 351.666 45.6561 351.39 45.6561C350.726 45.6561 350.214 45.7467 349.853 45.9254C349.494 46.1061 349.225 46.3482 349.045 46.6525C348.864 46.9571 348.754 47.3025 348.713 47.6899C348.672 48.0774 348.65 48.4643 348.65 48.8514V65.3274C348.65 65.7154 348.672 66.1019 348.713 66.4894C348.754 66.8774 348.864 67.2222 349.045 67.5269C349.225 67.8315 349.494 68.0733 349.853 68.253C350.214 68.4331 350.726 68.5227 351.39 68.5227C351.666 68.5227 351.902 68.5509 352.094 68.6061C352.289 68.6618 352.4 68.9243 352.426 69.3941C352.426 69.6165 352.365 69.8233 352.24 70.0165C352.117 70.2102 351.929 70.3071 351.68 70.3071C350.794 70.2519 349.952 70.2175 349.149 70.2034C348.346 70.1894 347.53 70.1826 346.7 70.1826C345.04 70.1826 343.325 70.2243 341.554 70.3071C341.305 70.3071 341.118 70.2102 340.994 70.0165C340.869 69.8233 340.808 69.6165 340.808 69.3941C340.834 68.9243 340.946 68.6618 341.14 68.6061C341.333 68.5509 341.581 68.5227 341.886 68.5227C342.55 68.5227 343.062 68.4331 343.421 68.253C343.781 68.0733 344.044 67.8315 344.21 67.5269C344.376 67.2222 344.48 66.8774 344.521 66.4894C344.564 66.1019 344.584 65.7154 344.584 65.3274V57.9815H331.553Z" fill="black"/>
<path d="M362.193 65.3274C362.193 65.7154 362.214 66.1019 362.254 66.4894C362.295 66.8774 362.401 67.2222 362.567 67.5269C362.733 67.8315 362.995 68.0733 363.354 68.253C363.714 68.4331 364.227 68.5227 364.891 68.5227C365.194 68.5227 365.437 68.5509 365.617 68.6061C365.795 68.6618 365.913 68.9243 365.969 69.3941C365.969 69.6165 365.906 69.8233 365.783 70.0165C365.658 70.2102 365.471 70.3071 365.223 70.3071C363.423 70.2243 361.709 70.1826 360.075 70.1826C359.246 70.1826 358.43 70.1894 357.627 70.2034C356.825 70.2175 355.981 70.2519 355.095 70.3071C354.819 70.3071 354.625 70.2102 354.514 70.0165C354.403 69.8233 354.349 69.6165 354.349 69.3941C354.377 68.9243 354.487 68.6618 354.681 68.6061C354.874 68.5509 355.11 68.5227 355.387 68.5227C356.051 68.5227 356.563 68.4331 356.922 68.253C357.282 68.0733 357.545 67.8315 357.711 67.5269C357.877 67.2222 357.981 66.8774 358.022 66.4894C358.065 66.1019 358.098 65.7154 358.125 65.3274V48.8514C358.098 48.4643 358.065 48.0774 358.022 47.6899C357.981 47.3025 357.877 46.9571 357.711 46.6525C357.545 46.3482 357.282 46.1061 356.922 45.9254C356.563 45.7467 356.051 45.6561 355.387 45.6561C355.11 45.6561 354.874 45.629 354.681 45.5727C354.487 45.5181 354.377 45.2555 354.349 44.7842C354.349 44.5639 354.403 44.3561 354.514 44.1618C354.625 43.9691 354.819 43.8717 355.095 43.8717C355.981 43.9274 356.818 43.9623 357.607 43.9754C358.397 43.9894 359.205 43.9962 360.034 43.9962C361.694 43.9962 363.423 43.955 365.223 43.8717C365.471 43.8717 365.658 43.9691 365.783 44.1618C365.906 44.3561 365.969 44.5639 365.969 44.7842C365.913 45.2555 365.795 45.5181 365.617 45.5727C365.437 45.629 365.194 45.6561 364.891 45.6561C364.227 45.6561 363.714 45.7467 363.354 45.9254C362.995 46.1061 362.733 46.3482 362.567 46.6525C362.401 46.9571 362.295 47.3025 362.254 47.6899C362.214 48.0774 362.193 48.4643 362.193 48.8514V65.3274Z" fill="black"/>
<path d="M375.735 65.9498C375.762 66.2263 375.791 66.5175 375.818 66.8211C375.846 67.1258 375.949 67.4091 376.129 67.6722C376.309 67.9353 376.593 68.1493 376.979 68.3149C377.367 68.481 377.921 68.5509 378.639 68.5227H382.375C383.094 68.4962 383.682 68.4055 384.139 68.253C384.595 68.1014 384.975 67.8383 385.281 67.4643C385.583 67.091 385.846 66.5998 386.069 65.9915C386.29 65.3831 386.538 64.6222 386.815 63.7087C386.926 63.4326 387.113 63.2525 387.375 63.1691C387.638 63.0863 387.922 63.0727 388.227 63.1279C388.449 63.1831 388.677 63.2873 388.911 63.4394C389.146 63.591 389.249 63.8055 389.223 64.0826L388.393 69.3107C388.31 69.6987 388.179 69.9415 387.999 70.0373C387.818 70.1347 387.549 70.1826 387.189 70.1826H373.577C372.747 70.1826 371.938 70.1894 371.149 70.2034C370.361 70.2175 369.511 70.2519 368.597 70.3071C368.347 70.3071 368.167 70.2102 368.058 70.0165C367.947 69.8233 367.893 69.6165 367.893 69.3941C367.918 68.979 368.022 68.7306 368.202 68.6473C368.382 68.5643 368.625 68.5227 368.929 68.5227C369.593 68.5227 370.105 68.4331 370.465 68.253C370.823 68.0733 371.087 67.8315 371.253 67.5269C371.419 67.2222 371.522 66.8774 371.565 66.4894C371.606 66.1019 371.626 65.7154 371.626 65.3274V48.8514C371.626 48.4643 371.606 48.0774 371.565 47.6899C371.522 47.3025 371.419 46.9571 371.253 46.6525C371.087 46.3482 370.823 46.1061 370.465 45.9254C370.105 45.7467 369.593 45.6561 368.929 45.6561C368.625 45.6561 368.382 45.6217 368.202 45.5525C368.022 45.4837 367.918 45.2274 367.893 44.7842C367.893 44.5082 367.947 44.2863 368.058 44.1201C368.167 43.955 368.347 43.8717 368.597 43.8717C369.511 43.9274 370.353 43.9623 371.129 43.9754C371.902 43.9894 372.706 43.9962 373.535 43.9962C375.195 43.9962 376.925 43.955 378.723 43.8717C378.999 43.8717 379.193 43.9691 379.303 44.1618C379.414 44.3561 379.47 44.5639 379.47 44.7842C379.442 45.2555 379.331 45.5181 379.138 45.5727C378.945 45.629 378.709 45.6561 378.433 45.6561C377.769 45.6561 377.257 45.7467 376.898 45.9254C376.537 46.1061 376.275 46.3482 376.109 46.6525C375.943 46.9571 375.839 47.3025 375.797 47.6899C375.755 48.0774 375.735 48.4643 375.735 48.8514V65.9498Z" fill="black"/>
<path d="M399.782 60.0982H408.497L404.305 49.4326H404.18L399.782 60.0982ZM401.442 43.7473C402.298 43.7473 403.053 43.8091 403.704 43.9342C404.353 44.0587 404.934 44.2733 405.448 44.5774C405.958 44.8821 406.421 45.3243 406.837 45.9045C407.252 46.4863 407.653 47.2326 408.04 48.1462L415.013 65.3274C415.15 65.6873 415.302 66.053 415.469 66.4269C415.634 66.8009 415.828 67.1399 416.05 67.4435C416.272 67.7482 416.533 68.0034 416.84 68.2113C417.142 68.4191 417.516 68.5227 417.958 68.5227C418.264 68.5227 418.505 68.5509 418.685 68.6061C418.865 68.6618 418.968 68.9243 418.997 69.3941C418.997 69.6165 418.934 69.8233 418.809 70.0165C418.685 70.2102 418.5 70.3071 418.249 70.3071C417.364 70.2519 416.589 70.2175 415.925 70.2034C415.261 70.1894 414.514 70.1826 413.684 70.1826C412.024 70.1826 410.309 70.2243 408.538 70.3071C408.261 70.3071 408.069 70.2102 407.958 70.0165C407.846 69.8233 407.792 69.6165 407.792 69.3941C407.818 68.9243 407.922 68.6618 408.104 68.6061C408.282 68.5509 408.524 68.5227 408.829 68.5227C409.493 68.5227 410.005 68.4607 410.364 68.3358C410.724 68.2113 410.953 68.0249 411.049 67.7758C411.146 67.5269 411.16 67.2019 411.09 66.8009C411.021 66.4003 410.876 65.9082 410.654 65.3274L409.244 61.8826H398.993C398.329 63.5706 397.886 64.7191 397.666 65.3274C397.444 66.0473 397.292 66.6139 397.209 67.0285C397.125 67.4435 397.168 67.7623 397.334 67.9837C397.5 68.2055 397.81 68.3509 398.266 68.4191C398.724 68.4889 399.352 68.5227 400.156 68.5227C400.46 68.5227 400.701 68.5509 400.881 68.6061C401.061 68.6618 401.165 68.9243 401.193 69.3941C401.193 69.6165 401.13 69.8233 401.006 70.0165C400.881 70.2102 400.694 70.3071 400.446 70.3071C399.561 70.2519 398.792 70.2175 398.142 70.2034C397.492 70.1894 396.752 70.1826 395.922 70.1826C395.508 70.1826 395.148 70.1826 394.844 70.1826C394.538 70.1826 394.241 70.1894 393.952 70.2034C393.661 70.2175 393.356 70.231 393.037 70.2451C392.72 70.2587 392.34 70.2801 391.897 70.3071C391.621 70.3071 391.426 70.2102 391.316 70.0165C391.205 69.8233 391.15 69.6165 391.15 69.3941C391.178 68.9243 391.281 68.6618 391.46 68.6061C391.641 68.5509 391.882 68.5227 392.186 68.5227C392.74 68.5227 393.189 68.4331 393.536 68.253C393.882 68.0733 394.173 67.8315 394.406 67.5269C394.642 67.2222 394.844 66.8774 395.01 66.4894C395.176 66.1019 395.342 65.7154 395.508 65.3274L402.77 48.1462C402.962 47.6482 403.032 47.2473 402.977 46.9425C402.921 46.6383 402.792 46.3899 402.582 46.1957C402.376 46.0025 402.113 45.8571 401.794 45.7597C401.476 45.6634 401.152 45.5867 400.82 45.5315C400.404 45.4482 400.128 45.3727 399.989 45.303C399.85 45.2347 399.782 44.9921 399.782 44.5774C399.782 44.1071 399.941 43.8509 400.258 43.8091C400.576 43.7681 400.97 43.7473 401.442 43.7473Z" fill="black"/>
</svg>
